PathFileType	4	(X/Y/Z)	pose_F01_0-95.trc
DataRate	CameraRate	NumFrames	NumMarkers	Units	OrigDataRate	OrigDataStartFrame	OrigNumFrames
30	30	10	21	m	30	71	95
Frame#	Time	CHip			RHip			RKnee			RAnkle			RBigToe			RSmallToe			RHeel			LHip			LKnee			LAnkle			LBigToe			LSmallToe			LHeel			Neck			Nose			RShoulder			RElbow			RWrist			LShoulder			LElbow			LWrist			
		X1	Y1	Z1	X2	Y2	Z2	X3	Y3	Z3	X4	Y4	Z4	X5	Y5	Z5	X6	Y6	Z6	X7	Y7	Z7	X8	Y8	Z8	X9	Y9	Z9	X10	Y10	Z10	X11	Y11	Z11	X12	Y12	Z12	X13	Y13	Z13	X14	Y14	Z14	X15	Y15	Z15	X16	Y16	Z16	X17	Y17	Z17	X18	Y18	Z18	X19	Y19	Z19	X20	Y20	Z20	X21	Y21	Z21	
71	2.3666666666666667	-0.2929407409144867	1.8514972342430698	-0.5204006460469215	-0.3046204455124832	1.8469383984550902	-0.4633156849338015	-0.2874432784712824	1.769671961886211	-0.4519920858376334	-0.31521300097282745	1.6342216108244159	-0.4984131715263855	-0.3179318790989927	1.61906448484189	-0.4849062045933865	-0.32872567168242955	1.6242539627608854	-0.46079619397842975	-0.3203028429653124	1.6262374196862157	-0.509956452547329	-0.28022949439724265	1.8544426549862179	-0.5772865978664391	-0.2760582176258056	1.721878191749047	-0.5830951901606772	-0.27118388989216236	1.6182994564610922	-0.5877484261378323							-0.274741618302188	1.6111592653459756	-0.5965265814077707	-0.3002996624285803	1.993090768255512	-0.5460705701308045	-0.2844836740412927	2.046957756661469	-0.5354386251766454	-0.3167385620028052	1.9815635873148276	-0.46215418085535687	-0.3315132917844991	1.9128849764350404	-0.4340080663572383	-0.3212874658873429	1.9587408615344322	-0.42356099194594876	-0.2784188056728693	2.002300216491519	-0.6276185581500379	-0.24219066769409395	2.0447435418941375	-0.7133886361418581	-0.20184495489723664	2.104582322457261	-0.8282916817189292
72	2.4	-0.2932408823457881	1.8482651767807654	-0.5202649769274975	-0.3049809816997686	1.8442608168291283	-0.46320739007508793	-0.2874432784712824	1.769671961886211	-0.4519920858376334	-0.31521300097282745	1.6342216108244159	-0.4984131715263855	-0.3179318790989927	1.61906448484189	-0.4849062045933865	-0.32872567168242955	1.6242539627608854	-0.46079619397842975	-0.3203028429653124	1.6262374196862157	-0.509956452547329	-0.2783605079635949	1.8529184998711508	-0.5793134886322118	-0.2760582176258056	1.721878191749047	-0.5830951901606772	-0.27118388989216236	1.6182994564610922	-0.5877484261378323							-0.274741618302188	1.6111592653459756	-0.5965265814077707	-0.3012449795215747	1.9917382978742737	-0.5488491815119869	-0.2844378952559726	2.0471256171900576	-0.5354677926736449	-0.3177980082584955	1.9818828099167907	-0.465398180769076	-0.3324565414381195	1.9138390396145315	-0.4367311799421657	-0.3172454806856155	1.9581437329114992	-0.42694666147342586	-0.2785424549563839	2.001133250540222	-0.6276942472741559	-0.24309562719335318	2.047873389020558	-0.7172754276473555	-0.20019403069130123	2.108949904441505	-0.8340655138533914
73	2.433333333333333	-0.29310538165222827	1.8493347362969115	-0.5204006117839273	-0.3049810760426404	1.8438686431612852	-0.46317610438398865	-0.2874432784712824	1.769671961886211	-0.4519920858376334	-0.31521300097282745	1.6342216108244159	-0.4984131715263855	-0.3179318790989927	1.61906448484189	-0.4849062045933865	-0.32872567168242955	1.6242539627608854	-0.46079619397842975	-0.3203028429653124	1.6262374196862157	-0.509956452547329	-0.27850210203655834	1.853614226912512	-0.5794483181655228	-0.2760582176258056	1.721878191749047	-0.5830951901606772	-0.27118388989216236	1.6182994564610922	-0.5877484261378323							-0.274741618302188	1.6111592653459756	-0.5965265814077707	-0.29935847041669317	1.9932556417547738	-0.5512455020589234	-0.2854534508477927	2.048472322925601	-0.5389526024558401	-0.3177143944529574	1.9821195600076642	-0.4653060925781431	-0.3302487760716996	1.9173179322940923	-0.4306643022485014	-0.3181692772228102	1.9624100598064034	-0.42286575392797304	-0.27934835553502874	2.004090120683904	-0.6310982190694758	-0.2434484699406521	2.052474720034974	-0.7292731401792888	-0.1988168979192952	2.1067347429263745	-0.8390902796856872
74	2.466666666666667	-0.2925697219937444	1.8487532870325898	-0.5255246100968237	-0.3062943869585574	1.8447682807277672	-0.4663301697878037	-0.2874432784712824	1.769671961886211	-0.4519920858376334	-0.31521300097282745	1.6342216108244159	-0.4984131715263855	-0.3179318790989927	1.61906448484189	-0.4849062045933865	-0.32872567168242955	1.6242539627608854	-0.46079619397842975	-0.3203028429653124	1.6262374196862157	-0.509956452547329	-0.27761449613434813	1.8532960601095911	-0.5846114263167167	-0.2760582176258056	1.721878191749047	-0.5830951901606772	-0.27118388989216236	1.6182994564610922	-0.5877484261378323							-0.274741618302188	1.6111592653459756	-0.5965265814077707	-0.3014426324303288	1.9919539148122356	-0.5493367723119812	-0.28451359664757214	2.048371449131466	-0.5359357833921174	-0.32098319951517357	1.98197185435538	-0.4668044550978187	-0.3300197291880053	1.9224503758853122	-0.4302843997481364	-0.3208490318047954	1.944192601969844	-0.3964441567232014	-0.27638671693489525	2.003838768013837	-0.6303188250920554	-0.23946389322798323	2.0482301754490475	-0.744408266161609	-0.1944759201291699	2.098718937927037	-0.8643426849093652
75	2.5	-0.2940242506111859	1.846078790049097	-0.5232023775935701	-0.3059753971488587	1.8408747119624334	-0.4659616304942343	-0.2874432784712824	1.769671961886211	-0.4519920858376334	-0.31521300097282745	1.6342216108244159	-0.4984131715263855	-0.3179318790989927	1.61906448484189	-0.4849062045933865	-0.32872567168242955	1.6242539627608854	-0.46079619397842975	-0.3203028429653124	1.6262374196862157	-0.509956452547329	-0.27937831702239463	1.8509716694192269	-0.582259770417974	-0.2760582176258056	1.721878191749047	-0.5830951901606772	-0.27118388989216236	1.6182994564610922	-0.5877484261378323							-0.274741618302188	1.6111592653459756	-0.5965265814077707	-0.299462278719968	1.9920096782226746	-0.5513147378452379	-0.2864019018616585	2.0494853449987613	-0.5335767247584817	-0.31900177796276785	1.9805909572728064	-0.46862987500964187	-0.32933255993705196	1.912272864733007	-0.4353832191011754	-0.32352878638678056	1.9259751441332842	-0.3700225595184297	-0.27633545740346876	2.00315441411653	-0.6302383920868829	-0.23708476203324547	2.0126627976604707	-0.7579222674889432	-0.18331887289586266	2.041177194649429	-0.8882024505733872
76	2.533333333333333	-0.2931248237019839	1.848119798431408	-0.5287035445071108	-0.3052555805195374	1.842657497101146	-0.4713870995907597	-0.2874432784712824	1.769671961886211	-0.4519920858376334	-0.31521300097282745	1.6342216108244159	-0.4984131715263855	-0.3179318790989927	1.61906448484189	-0.4849062045933865	-0.32872567168242955	1.6242539627608854	-0.46079619397842975	-0.3203028429653124	1.6262374196862157	-0.509956452547329	-0.27839873276321175	1.8530527567669564	-0.587677839013301	-0.2760582176258056	1.721878191749047	-0.5830951901606772	-0.27118388989216236	1.6182994564610922	-0.5877484261378323							-0.274741618302188	1.6111592653459756	-0.5965265814077707	-0.2994298693861349	1.9919834741805245	-0.5514891536302986	-0.28735418797836726	2.0518769315346326	-0.5287853842696721	-0.3189677719955475	1.9803258497606027	-0.46868104019525747	-0.332744669195231	1.9119315885312969	-0.4147844968521593	-0.34237722570249857	1.8724444943653835	-0.33254827565127115	-0.2753012104819408	2.0008760129836705	-0.6351578706332761	-0.24807712021515718	1.9876337437261264	-0.759212078809074	-0.21972943324208333	1.9830910367312704	-0.8545384579730563
77	2.566666666666667	-0.29034167870956606	1.8502082161247158	-0.5280923359348496	-0.3041512099197017	1.8459027337076381	-0.4687471122312595	-0.2874432784712824	1.769671961886211	-0.4519920858376334	-0.31521300097282745	1.6342216108244159	-0.4984131715263855	-0.3179318790989927	1.61906448484189	-0.4849062045933865	-0.32872567168242955	1.6242539627608854	-0.46079619397842975	-0.3203028429653124	1.6262374196862157	-0.509956452547329	-0.2784962730921516	1.8531037857466206	-0.5880009341701651	-0.2760582176258056	1.721878191749047	-0.5830951901606772	-0.27118388989216236	1.6182994564610922	-0.5877484261378323							-0.274741618302188	1.6111592653459756	-0.5965265814077707	-0.29747493271813163	1.9917412130392946	-0.5537206380140127	-0.2882336450861482	2.054266863245212	-0.5322640190847339	-0.31703643794938985	1.9829410369709028	-0.47115859557930073	-0.3284985238624464	1.9079971484081122	-0.40153474047082743	-0.32584482685933674	1.8425191317609781	-0.33219478068847713	-0.27333531111873205	1.9990153954379757	-0.6375354314698346	-1.2568683005241332	1.8592964728606645	0.28067258450841326	-0.2342108965589733	1.9325231796518865	-0.7884699584122725
78	2.6	-0.29348329843671556	1.8457016733795717	-0.537001830983927	-0.30532852698545615	1.8440015336120867	-0.4717132261733631	-0.2874432784712824	1.769671961886211	-0.4519920858376334	-0.31521300097282745	1.6342216108244159	-0.4984131715263855	-0.3179318790989927	1.61906448484189	-0.4849062045933865	-0.32872567168242955	1.6242539627608854	-0.46079619397842975	-0.3203028429653124	1.6262374196862157	-0.509956452547329	-0.27856721193347417	1.8480167579317293	-0.5958259255601871	-0.2760582176258056	1.721878191749047	-0.5830951901606772	-0.27118388989216236	1.6182994564610922	-0.5877484261378323							-0.274741618302188	1.6111592653459756	-0.5965265814077707	-0.29340256921780555	1.9892815410185631	-0.557556628970159	-0.2842168045998538	2.056530844621927	-0.5369999975056479	-0.31372814045680814	1.9821841693696058	-0.46976677422757535	-0.3166337853545983	1.9074725622744677	-0.422240519999034	-0.32338799143519137	1.8469129329918323	-0.3795889940887972	-0.26919113785135773	1.9958666728794507	-0.6415813251161948	-0.2651654615892984	1.9279913708401808	-0.67882540910486	-0.2486923598758633	1.8819553225725023	-0.7224014588514887
79	2.6333333333333333	-0.29259569733903357	1.842031361918719	-0.5376540639963886	-0.3049842709866626	1.8402840098130722	-0.4738644943262886	-0.2874432784712824	1.769671961886211	-0.4519920858376334	-0.31521300097282745	1.6342216108244159	-0.4984131715263855	-0.3179318790989927	1.61906448484189	-0.4849062045933865	-0.32872567168242955	1.6242539627608854	-0.46079619397842975	-0.3203028429653124	1.6262374196862157	-0.509956452547329	-0.2791259981153513	1.844369056849977	-0.5969784314870513	-0.2760582176258056	1.721878191749047	-0.5830951901606772	-0.27118388989216236	1.6182994564610922	-0.5877484261378323							-0.274741618302188	1.6111592653459756	-0.5965265814077707	-0.2923460045323959	1.9877750057093506	-0.5626808426740617	-0.28121804523047633	2.056675964293981	-0.5444930822733965	-0.31598882623298297	1.9864225999966787	-0.47727339789183704	-0.32035107483298497	1.913493152150961	-0.4487201939372801	-0.32093115601104594	1.8513067342226863	-0.4269832074891172	-0.2689064072445516	1.9928921558293584	-0.6493820129523546	-0.2670946025870536	1.9091103226452604	-0.654772550235991	-0.2631738231927533	1.8313874654931184	-0.6563329592907049
80	2.6666666666666665	-0.29170809624135163	1.8383610504578662	-0.5383062970088502	-0.30464001498786897	1.8365664860140574	-0.47601576247921407	-0.2874432784712824	1.769671961886211	-0.4519920858376334	-0.31521300097282745	1.6342216108244159	-0.4984131715263855	-0.3179318790989927	1.61906448484189	-0.4849062045933865	-0.32872567168242955	1.6242539627608854	-0.46079619397842975	-0.3203028429653124	1.6262374196862157	-0.509956452547329	-0.2796847842972285	1.8407213557682252	-0.5981309374139155	-0.2760582176258056	1.721878191749047	-0.5830951901606772	-0.27118388989216236	1.6182994564610922	-0.5877484261378323							-0.274741618302188	1.6111592653459756	-0.5965265814077707	-0.29104993966902	1.9893075133487856	-0.5679519253435484	-0.28012248390092026	2.0581295296660698	-0.550264443929485	-0.31205620887487007	1.9862251638751485	-0.48148020050674045	-0.318278078162169	1.9077375013990274	-0.4424084029460084	-0.32715566105544786	1.8409135376678931	-0.40719359059197324	-0.2685709007603482	1.9940378507898477	-0.6576696213728347	-0.26222144681465853	1.9098909685735568	-0.6762130035915368	-0.25598462933762145	1.832388984108707	-0.6801353330227808
